<?xml version="1.0" standalone="no"?>
<!DOCTYPE svg PUBLIC "-//W3C//DTD SVG 20010904//EN"
 "http://www.w3.org/TR/2001/REC-SVG-20010904/DTD/svg10.dtd">
<svg version="1.0" xmlns="http://www.w3.org/2000/svg"
 width="330.000000pt" height="330.000000pt" viewBox="0 0 330.000000 330.000000"
 preserveAspectRatio="xMidYMid meet">
<metadata>
Created by potrace 1.11, written by Peter Selinger 2001-2013
</metadata>
<g transform="translate(0.000000,330.000000) scale(0.100000,-0.100000)"
fill="#000000" stroke="none">
<path d="M1625 3286 c-11 -7 -110 -65 -220 -128 -110 -64 -240 -139 -290 -168
-49 -29 -103 -60 -120 -70 -28 -16 -173 -99 -248 -143 -18 -11 -141 -82 -275
-159 l-242 -141 2 -824 3 -824 140 -81 c136 -79 286 -165 608 -352 86 -50 172
-99 190 -110 17 -10 132 -76 254 -147 l222 -128 253 146 c139 80 268 154 286
164 17 11 47 27 65 38 39 22 180 104 336 195 62 36 115 66 116 66 2 0 43 24
92 53 48 30 130 77 181 106 l92 53 0 823 0 823 -202 117 c-112 65 -219 126
-238 137 -95 54 -131 75 -200 115 -41 24 -82 48 -90 53 -8 5 -130 75 -270 155
-140 81 -267 156 -282 166 -15 11 -29 19 -32 19 -3 0 -28 14 -56 30 -60 35
-51 33 -75 16z"/>
</g>
</svg>
